<svg id="Layer_1" height="512" viewBox="0 0 512 512" width="512" xmlns="http://www.w3.org/2000/svg" data-name="Layer 1"><path d="m310 93h-108a36 36 0 0 0 -36 36v352a19.994 19.994 0 0 0 20 20h140a19.994 19.994 0 0 0 20-20v-352a36 36 0 0 0 -36-36z" fill="#7cadc2"/><path d="m296 11h-80a19.994 19.994 0 0 0 -20 20v32h120v-32a19.994 19.994 0 0 0 -20-20z" fill="#7cadc2"/><path d="m346 224.48v160.24h-1-93.39v-160.24h93.39z" fill="#a9b6d8"/><path d="m206 63h100v30h-100z" fill="#678e9b"/><path d="m196 481v-352a36 36 0 0 1 36-36h-30a36 36 0 0 0 -36 36v352a19.994 19.994 0 0 0 20 20h30a19.994 19.994 0 0 1 -20-20z" fill="#628c9b"/><path d="m226 31a19.994 19.994 0 0 1 20-20h-30a19.994 19.994 0 0 0 -20 20v32h30z" fill="#628c9b"/><g fill="#f4f8fc"><path d="m196 153a6 6 0 0 1 -6-6v-2a6 6 0 0 1 12 0v2a6 6 0 0 1 -6 6z"/><path d="m196 271a6 6 0 0 1 -6-6v-92a6 6 0 0 1 12 0v92a6 6 0 0 1 -6 6z"/></g></svg>