<?xml version="1.0" encoding="iso-8859-1"?>
<!-- Generator: Adobe Illustrator 19.0.0, SVG Export Plug-In . SVG Version: 6.00 Build 0)  -->
<svg version="1.1" id="Layer_1" xmlns="http://www.w3.org/2000/svg" xmlns:xlink="http://www.w3.org/1999/xlink" x="0px" y="0px"
	 viewBox="0 0 502.657 502.657" style="enable-background:new 0 0 502.657 502.657;" xml:space="preserve">
<g>
	<g>
		<path d="M364.445,80.777c0.026-0.487,0.041-0.977,0.041-1.47V50.121C364.486,17.566,306.186,0,251.33,0
			c-54.856,0-113.155,17.566-113.155,50.121v29.186c0,0.493,0.014,0.981,0.041,1.467c-11.033,9.64-13.499,19.22-13.499,25.843
			c0,0.046,0.003,0.093,0.003,0.14v210.856c0,4.576,3.71,8.286,8.286,8.286c4.576,0,8.286-3.71,8.286-8.286V134.899
			c21.421,16.538,61.758,27.215,110.043,27.215c13.089,0,25.976-0.826,38.3-2.454c4.536-0.599,7.729-4.764,7.129-9.3
			c-0.6-4.536-4.761-7.728-9.3-7.129c-11.609,1.533-23.764,2.311-36.13,2.311c-30.578,0-59.203-4.702-80.601-13.239
			c-18.438-7.356-29.446-16.959-29.446-25.686c0-3.31,1.561-6.42,3.745-9.157c16.969,20.881,62.718,31.969,106.297,31.969
			c43.58,0,89.329-11.088,106.298-31.969c2.184,2.738,3.741,5.849,3.741,9.158c0,10.786-16.718,22.632-42.591,30.181
			c-4.394,1.281-6.915,5.882-5.633,10.274c1.056,3.618,4.362,5.967,7.95,5.967c0.768,0,1.55-0.108,2.324-0.334
			c15.95-4.654,28.76-10.728,37.95-17.797v286.251c0,8.726-11.005,18.328-29.441,25.682c-21.396,8.535-50.018,13.236-80.598,13.236
			c-62.98,0-110.039-20.547-110.039-38.918v-75.929c0-4.576-3.71-8.286-8.286-8.286c-4.576,0-8.286,3.71-8.286,8.286v75.929
			c0,9.399,4.806,18.111,13.454,25.715v5.665c0,32.552,58.303,50.116,113.161,50.116c54.851,0,113.148-17.564,113.148-50.116v-5.662
			c8.65-7.605,13.458-16.318,13.458-25.718V106.616c0.002-0.004,0.001-0.009,0.001-0.014
			C377.936,99.98,375.467,90.409,364.445,80.777z M347.916,79.307c-0.001,14.009-36.745,33.55-96.585,33.55
			s-96.585-19.541-96.585-33.55v-2.129c21.223,15.115,59.682,23.065,96.585,23.065s75.362-7.951,96.585-23.065V79.307z
			 M261.321,83.477c2.377-6.585,11.755-11.67,22.603-11.67c8.133,0.001,14.706,2.708,18.747,6.337
			C290.868,80.939,276.996,82.89,261.321,83.477z M347.647,52.136c-19.943-14.151-56.052-22.954-96.312-22.954
			c-14.537,0-28.664,1.132-41.987,3.365c-4.513,0.757-7.559,5.029-6.802,9.542c0.757,4.513,5.028,7.561,9.542,6.802
			c12.421-2.082,25.624-3.137,39.247-3.137c35.225,0,68.292,7.543,85.371,18.925c-4.422,2.945-10.092,5.787-16.915,8.336
			c-6.427-10.674-20.12-17.779-35.866-17.779c-20.956,0-37.642,12.212-39.579,28.333c-36.833-0.958-64.121-9.39-78.386-18.89
			c4.67-3.102,10.614-5.991,17.612-8.532c4.302-1.562,6.521-6.316,4.959-10.617c-1.562-4.302-6.314-6.522-10.617-4.959
			c-9.145,3.322-16.802,7.185-22.906,11.533c-0.157-0.671-0.262-1.336-0.262-1.986c0-14.007,36.744-33.548,96.585-33.548
			c59.84,0,96.585,19.541,96.585,33.55C347.916,50.78,347.808,51.455,347.647,52.136z M251.335,486.085
			c-51.051,0-85.271-14.217-94.232-27.091c22.82,10.976,56.038,17.655,94.228,17.655c38.188,0,71.403-6.678,94.222-17.652
			C336.591,471.87,302.376,486.085,251.335,486.085z"/>
	</g>
</g>
<g>
</g>
<g>
</g>
<g>
</g>
<g>
</g>
<g>
</g>
<g>
</g>
<g>
</g>
<g>
</g>
<g>
</g>
<g>
</g>
<g>
</g>
<g>
</g>
<g>
</g>
<g>
</g>
<g>
</g>
</svg>
