<?xml version="1.0" encoding="iso-8859-1"?>
<!-- Generator: Adobe Illustrator 19.0.0, SVG Export Plug-In . SVG Version: 6.00 Build 0)  -->
<svg version="1.1" id="Capa_1" xmlns="http://www.w3.org/2000/svg" xmlns:xlink="http://www.w3.org/1999/xlink" x="0px" y="0px"
	 viewBox="0 0 511.999 511.999" style="enable-background:new 0 0 511.999 511.999;" xml:space="preserve">
<g>
	<g>
		<path d="M421.976,136.204h-23.409l-0.012,0.008c-0.19-20.728-1.405-41.457-3.643-61.704l-1.476-13.352H5.159L3.682,74.507
			C1.239,96.601,0,119.273,0,141.895c0,65.221,7.788,126.69,22.52,177.761c7.67,26.588,17.259,50.661,28.5,71.548
			c11.793,21.915,25.534,40.556,40.839,55.406l4.364,4.234h206.148l4.364-4.234c15.306-14.85,29.046-33.491,40.839-55.406
			c11.241-20.888,20.829-44.96,28.5-71.548c0.325-1.127,0.643-2.266,0.961-3.404h44.94c49.639,0,90.024-40.385,90.024-90.024
			C512,176.588,471.615,136.204,421.976,136.204z M421.976,256.252h-32c3.061-19.239,5.329-39.333,6.766-60.048h25.234
			c16.582,0,30.024,13.442,30.024,30.024C452,242.81,438.558,256.252,421.976,256.252z"/>
	</g>
</g>
<g>
</g>
<g>
</g>
<g>
</g>
<g>
</g>
<g>
</g>
<g>
</g>
<g>
</g>
<g>
</g>
<g>
</g>
<g>
</g>
<g>
</g>
<g>
</g>
<g>
</g>
<g>
</g>
<g>
</g>
</svg>
