<svg id="icon" height="512" viewBox="0 0 128 128" width="512" xmlns="http://www.w3.org/2000/svg"><path d="m85.616 47.808v-10.132a23.2 23.2 0 0 0 -5.885-15.423l-15.731-17.607-15.732 17.607a23.2 23.2 0 0 0 -5.885 15.423v10.132h2.136v29.36h-2.135v21.014a2.088 2.088 0 0 1 2.088 2.088v5.742a2.088 2.088 0 0 1 -2.088 2.088v15.174a3.736 3.736 0 0 0 3.725 3.726h5.491l.012-.095a3.21 3.21 0 0 1 1.675-2.487 3.369 3.369 0 0 1 3.794.423 3.329 3.329 0 0 1 1.091 2.064l.012.095h11.629v-.04a3.31 3.31 0 0 1 2.537-2.86 3.366 3.366 0 0 1 2.944.739 3.329 3.329 0 0 1 1.092 2.064l.014.097h5.493a3.736 3.736 0 0 0 3.725-3.725v-15.175a2.088 2.088 0 0 1 -2.088-2.088v-5.742a2.088 2.088 0 0 1 2.088-2.088v-21.014h-2.137v-29.36z" fill="#d9e2e9"/><path d="m85.616 47.808v-10.132a23.2 23.2 0 0 0 -5.885-15.423l-15.731-17.607-15.732 17.607a23.2 23.2 0 0 0 -5.885 15.423v10.132h2.136v29.36h-2.135v21.014a2.088 2.088 0 0 1 2.088 2.088v5.742a2.088 2.088 0 0 1 -2.088 2.088v15.174a3.736 3.736 0 0 0 3.725 3.726h5.491l.012-.095a3.21 3.21 0 0 1 1.675-2.487 3.369 3.369 0 0 1 3.794.423 3.329 3.329 0 0 1 1.091 2.064l.012.095h11.629v-.04a3.31 3.31 0 0 1 2.537-2.86 3.366 3.366 0 0 1 2.944.739 3.329 3.329 0 0 1 1.092 2.064l.014.097h5.493a3.736 3.736 0 0 0 3.725-3.725v-15.175a2.088 2.088 0 0 1 -2.088-2.088v-5.742a2.088 2.088 0 0 1 2.088-2.088v-21.014h-2.137v-29.36z" fill="#d9e2e9"/><g fill="#c1cdd3"><path d="m51.258 126.905.012.095h-5.161a3.56 3.56 0 0 1 -1.376-.273 3.19 3.19 0 0 1 1.637-2.313 3.383 3.383 0 0 1 3.8.427 3.329 3.329 0 0 1 1.088 2.064z"/><path d="m69.469 126.905.012.095h-6.581l.012-.036a3.286 3.286 0 0 1 2.527-2.859 3.3 3.3 0 0 1 4.034 2.8z"/><path d="m83.481 47.808v29.36h2.136v21.014a2.091 2.091 0 0 0 -2.088 2.088v5.742a2.091 2.091 0 0 0 2.088 2.088v15.174a3.732 3.732 0 0 1 -3.726 3.726h-5.491l-.012-.095a.945.945 0 0 0 -.036-.178 3.716 3.716 0 0 0 2.349-3.452v-15.175a2.091 2.091 0 0 1 -2.088-2.088v-5.742a2.091 2.091 0 0 1 2.087-2.088v-21.014h-2.136v-29.36h2.136v-10.132a23.2 23.2 0 0 0 -5.885-15.423l-12.267-13.739 3.452-3.868 15.732 17.607a23.2 23.2 0 0 1 5.885 15.423v10.132z"/><path d="m58.175 126.905.012.095h-6.587l.012-.095a3.245 3.245 0 0 1 1.673-2.491 3.384 3.384 0 0 1 3.8.427 3.329 3.329 0 0 1 1.09 2.064z"/><path d="m76.35 126.727a3.56 3.56 0 0 1 -1.376.273h-5.161v-.036a3.313 3.313 0 0 1 2.539-2.859 3.348 3.348 0 0 1 2.942.736 3.3 3.3 0 0 1 1.056 1.886z"/></g><path d="m44.476 28.116a23.129 23.129 0 0 0 -2.092 9.56v10.132h2.136v29.36h-2.136v21.014a2.088 2.088 0 0 1 2.088 2.088v5.742a2.088 2.088 0 0 1 -2.088 2.088v15.174a3.736 3.736 0 0 0 3.725 3.726h5.491l.012-.095a3.21 3.21 0 0 1 1.675-2.487 3.369 3.369 0 0 1 3.794.423 3.329 3.329 0 0 1 1.091 2.064l.012.095h11.629v-.04a3.31 3.31 0 0 1 2.537-2.86 3.366 3.366 0 0 1 2.944.739 3.329 3.329 0 0 1 1.092 2.064l.014.097h5.493a3.736 3.736 0 0 0 3.725-3.725v-15.175a2.088 2.088 0 0 1 -2.088-2.088v-5.742a2.088 2.088 0 0 1 2.088-2.088v-21.014h-2.137v-29.36h2.136v-10.132a23.129 23.129 0 0 0 -2.092-9.56z" fill="#3dbce9"/><path d="m44.476 28.116a23.129 23.129 0 0 0 -2.092 9.56v10.132h2.136v29.36h-2.136v21.014a2.088 2.088 0 0 1 2.088 2.088v5.742a2.088 2.088 0 0 1 -2.088 2.088v15.174a3.736 3.736 0 0 0 3.725 3.726h5.491l.012-.095a3.21 3.21 0 0 1 1.675-2.487 3.369 3.369 0 0 1 3.794.423 3.329 3.329 0 0 1 1.091 2.064l.012.095h11.629v-.04a3.31 3.31 0 0 1 2.537-2.86 3.366 3.366 0 0 1 2.944.739 3.329 3.329 0 0 1 1.092 2.064l.014.097h5.493a3.736 3.736 0 0 0 3.725-3.725v-15.175a2.088 2.088 0 0 1 -2.088-2.088v-5.742a2.088 2.088 0 0 1 2.088-2.088v-21.014h-2.137v-29.36h2.136v-10.132a23.129 23.129 0 0 0 -2.092-9.56z" fill="#5fc4f8"/><path d="m51.211 126.905.012.095h-5.114a3.589 3.589 0 0 1 -1.424-.285 3.17 3.17 0 0 1 1.637-2.3 3.387 3.387 0 0 1 3.8.427 3.329 3.329 0 0 1 1.089 2.063z" fill="#3dbce9"/><path d="m69.422 126.905.012.095h-6.585v-.036a3.315 3.315 0 0 1 2.527-2.859 3.382 3.382 0 0 1 2.954.736 3.329 3.329 0 0 1 1.092 2.064z" fill="#3dbce9"/><path d="m83.481 47.808v29.36h2.136v21.014a2.091 2.091 0 0 0 -2.088 2.088v5.742a2.091 2.091 0 0 0 2.088 2.088v15.174a3.732 3.732 0 0 1 -3.726 3.726h-5.491l-.012-.095c-.012-.059-.024-.13-.036-.19a3.748 3.748 0 0 0 2.3-3.441v-15.174a2.084 2.084 0 0 1 -2.088-2.088v-5.742a2.084 2.084 0 0 1 2.088-2.088v-21.014h-2.135v-29.36h2.136v-10.132a23.209 23.209 0 0 0 -2.1-9.562h6.976a23.2 23.2 0 0 1 2.088 9.562v10.132z" fill="#39b1d1"/><path d="m58.175 126.905.012.095h-6.587l.012-.095a3.245 3.245 0 0 1 1.673-2.491 3.384 3.384 0 0 1 3.8.427 3.329 3.329 0 0 1 1.09 2.064z" fill="#3dbce9"/><path d="m76.35 126.715a3.589 3.589 0 0 1 -1.424.285h-5.113v-.036a3.313 3.313 0 0 1 2.539-2.859 3.348 3.348 0 0 1 2.942.736 3.307 3.307 0 0 1 1.056 1.874z" fill="#3dbce9"/><path d="m81.891 128h-5.491a1 1 0 0 1 -.992-.877 2.306 2.306 0 0 0 -2.847-2.042 2.327 2.327 0 0 0 -1.748 2 1.041 1.041 0 0 1 -1 .916h-11.626a1 1 0 0 1 -.992-.877 2.319 2.319 0 0 0 -3.453-1.812 2.228 2.228 0 0 0 -1.135 1.719 1.1 1.1 0 0 1 -1 .971h-5.498a4.731 4.731 0 0 1 -4.726-4.725v-15.173a1 1 0 0 1 1-1 1.089 1.089 0 0 0 1.088-1.088v-5.742a1.09 1.09 0 0 0 -1.088-1.088 1 1 0 0 1 -1-1v-21.014a1 1 0 0 1 1-1h1.137v-27.36h-1.136a1 1 0 0 1 -1-1v-10.132a24.158 24.158 0 0 1 6.139-16.089l15.731-17.607a1.035 1.035 0 0 1 1.492 0l15.732 17.606a24.163 24.163 0 0 1 6.139 16.09v10.132a1 1 0 0 1 -1 1h-1.137v27.36h1.136a1 1 0 0 1 1 1v21.014a1 1 0 0 1 -1 1 1.09 1.09 0 0 0 -1.088 1.088v5.742a1.089 1.089 0 0 0 1.088 1.088 1 1 0 0 1 1 1v15.174a4.731 4.731 0 0 1 -4.725 4.726zm-4.691-2h4.688a2.729 2.729 0 0 0 2.726-2.725v-14.34a3.093 3.093 0 0 1 -2.088-2.922v-5.742a3.093 3.093 0 0 1 2.088-2.922v-19.181h-1.134a1 1 0 0 1 -1-1v-29.36a1 1 0 0 1 1-1h1.136v-9.132a22.164 22.164 0 0 0 -5.631-14.758l-14.985-16.771-14.985 16.772a22.159 22.159 0 0 0 -5.631 14.757v9.132h1.136a1 1 0 0 1 1 1v29.36a1 1 0 0 1 -1 1h-1.136v19.18a3.093 3.093 0 0 1 2.088 2.922v5.742a3.093 3.093 0 0 1 -2.088 2.922v14.34a2.729 2.729 0 0 0 2.725 2.726h4.691a4.094 4.094 0 0 1 2.037-2.474 4.313 4.313 0 0 1 6.155 2.474h10.026a4.242 4.242 0 0 1 3.126-2.876 4.3 4.3 0 0 1 5.056 2.876z" fill="#2f3a5a"/><path d="m55.154 1h17.69v12.052h-17.69z" fill="#84879c"/><path d="m72.84 1v12.05h-17.69v-3.03h13.87v-9.02z" fill="#707583"/><path d="m72.844 14.052h-17.69a1 1 0 0 1 -1-1v-12.052a1 1 0 0 1 1-1h17.69a1 1 0 0 1 1 1v12.052a1 1 0 0 1 -1 1zm-16.689-2h15.689v-10.052h-15.69z" fill="#2f3a5a"/><path d="m44.519 47.808h38.961v29.36h-38.961z" fill="#d9e2e9"/><path d="m44.519 47.808h33.926v29.36h-33.926z" fill="#f0f5f9"/><path d="m83.48 78.168h-38.96a1 1 0 0 1 -1-1v-29.36a1 1 0 0 1 1-1h38.96a1 1 0 0 1 1 1v29.36a1 1 0 0 1 -1 1zm-37.961-2h36.961v-27.36h-36.96z" fill="#2f3a5a"/><path d="m70.689 66.033a5.879 5.879 0 0 1 -11.759 0c0-3.247 5.879-12.01 5.879-12.01s5.88 8.763 5.88 12.01z" fill="#3dbce9"/></svg>