<svg width="843" height="843" viewBox="0 0 843 843" fill="none" xmlns="http://www.w3.org/2000/svg">
<g clip-path="url(#clip0)">
<path d="M154.686 0C145.083 0 137.384 7.97373 137.731 17.5724C146.889 269.75 166.588 501.176 215.084 778.681H346.151H496.849H627.916C676.578 500.225 696.155 268.591 705.269 17.5724C705.617 7.97373 697.918 0 688.314 0L154.686 0Z" fill="white"/>
<path d="M215.084 778.681V817.557C215.084 831.608 226.475 843 240.526 843H604.28C618.331 843 629.723 831.608 629.723 817.557V778.681H215.084Z" fill="#D5E3F4"/>
<path d="M562.41 778.681V817.557C562.41 831.608 551.018 843 536.967 843H604.28C618.331 843 629.723 831.608 629.723 817.557V778.681H562.41Z" fill="#B3CEEC"/>
<path d="M166 192C179.768 390.567 200.909 573.385 231.934 766H610.064C641.093 573.361 662.234 390.561 676 192H166Z" fill="#2D3051"/>
<path d="M636.75 477.802C636.75 486.138 636.287 494.359 635.361 502.464C630.382 545.768 612.551 585.134 585.689 616.743H259.061C232.199 585.25 214.368 545.883 209.389 502.58C208.463 494.475 208 486.254 208 477.918C208 440.751 217.494 405.784 234.167 375.217C241.925 382.511 247.83 394.206 258.366 399.416C285.113 414.699 321.353 405.089 336.521 378.459C344.163 366.996 363.267 365.144 368.941 378.459C374.614 387.953 380.403 393.742 389.898 399.416C416.644 414.699 452.884 405.089 468.052 378.459C475.694 365.144 496.651 365.144 504.293 378.459C509.966 387.953 515.755 393.742 525.25 399.416C551.996 414.699 588.236 405.089 603.404 378.459C604.794 375.564 606.646 373.596 608.73 372.091C626.561 403.237 636.75 439.361 636.75 477.802Z" fill="#CCF2FE"/>
<path d="M635.245 502.58C630.266 545.883 612.435 585.25 585.573 616.859C546.206 663.057 487.735 692.351 422.317 692.351C356.899 692.351 298.312 663.057 259.061 616.859C232.199 585.366 214.368 545.999 209.389 502.696C212.747 502.001 216.452 502.001 220.157 502.464C237.293 504.432 243.083 525.389 258.25 533.031C284.997 548.315 321.237 538.705 336.405 512.074C338.257 508.253 342.078 506.401 345.899 504.432C347.173 503.159 352.036 502.696 353.194 502.58C352.731 502.58 352.152 502.464 351.688 502.464C353.541 502.464 353.773 502.464 353.194 502.58C369.288 503.969 376.814 525.621 389.782 533.031C416.528 548.315 452.768 538.705 467.936 512.074C475.578 498.759 496.535 498.759 504.177 512.074C509.85 521.568 515.639 527.358 525.134 533.031C551.88 548.315 588.12 538.705 603.288 512.074C607.109 506.401 612.783 502.58 620.424 502.58H631.887C633.161 502.348 634.318 502.464 635.245 502.58Z" fill="url(#paint0_linear)"/>
<path d="M450.75 336C463.453 336 473.75 325.703 473.75 313C473.75 300.297 463.453 290 450.75 290C438.048 290 427.75 300.297 427.75 313C427.75 325.703 438.048 336 450.75 336Z" fill="#67D9FB"/>
<path d="M546.75 368C559.453 368 569.75 357.703 569.75 345C569.75 332.297 559.453 322 546.75 322C534.048 322 523.75 332.297 523.75 345C523.75 357.703 534.048 368 546.75 368Z" fill="#67D9FB"/>
<path d="M514.25 295C526.677 295 536.75 284.926 536.75 272.5C536.75 260.074 526.677 250 514.25 250C501.824 250 491.75 260.074 491.75 272.5C491.75 284.926 501.824 295 514.25 295Z" fill="#67D9FB"/>
</g>
<defs>
<linearGradient id="paint0_linear" x1="299.716" y1="657.911" x2="544.908" y2="412.718" gradientUnits="userSpaceOnUse">
<stop stop-color="#34CDFA"/>
<stop offset="1" stop-color="#E8D9F1"/>
</linearGradient>
<clipPath id="clip0">
<rect width="843" height="843" fill="white"/>
</clipPath>
</defs>
</svg>
