<svg id="Capa_1" enable-background="new 0 0 511.643 511.643" height="512" viewBox="0 0 511.643 511.643" width="512" xmlns="http://www.w3.org/2000/svg"><path d="m430.912 252.359v-19.835c0-10.044-7.372-18.377-16.984-19.932v-6.106c0-26.875-13.439-51.684-35.95-66.365l-19.294-12.583c-3.47-2.262-8.115-1.284-10.379 2.185-2.263 3.47-1.284 8.116 2.186 10.379l19.294 12.583c1.064.694 2.101 1.419 3.114 2.167l-15.784 3.463c-35.508 7.792-73.01 7.638-108.453-.446-39.928-9.107-82.043-8.722-121.798 1.111l-1.405.347c2.627-2.423 5.471-4.651 8.527-6.643l77.722-50.688c2.123-1.385 3.403-3.748 3.403-6.282v-12.36h73.549v12.362c0 2.535 1.28 4.897 3.403 6.282l31.634 20.631c1.265.825 2.685 1.219 4.09 1.219 2.449 0 4.851-1.199 6.289-3.404 2.263-3.47 1.284-8.117-2.186-10.379l-28.23-18.411v-9.162c9.459-2.69 16.41-11.402 16.41-21.713v-38.203c0-12.449-10.128-22.576-22.577-22.576h-91.217c-12.448 0-22.576 10.127-22.576 22.576v38.202c0 10.31 6.951 19.022 16.41 21.713v9.162l-74.318 48.469c-22.511 14.681-35.95 39.49-35.95 66.365v9.164c-5.482 3.62-9.111 9.828-9.111 16.874v19.835c0 7.046 3.629 13.254 9.111 16.874v29.538c-5.482 3.62-9.111 9.828-9.111 16.874v19.835c0 7.046 3.629 13.254 9.111 16.874v29.538c-5.482 3.62-9.111 9.828-9.111 16.874v19.835c0 7.046 3.629 13.254 9.111 16.874v34.586c0 22.928 18.653 41.582 41.582 41.582h240.922c22.929 0 41.582-18.654 41.582-41.582v-31.528c9.613-1.554 16.984-9.887 16.984-19.932v-19.835c0-10.044-7.372-18.377-16.984-19.932v-23.423c9.613-1.554 16.984-9.887 16.984-19.932v-19.835c0-10.044-7.372-18.377-16.984-19.932v-23.422c9.613-1.554 16.984-9.887 16.984-19.932zm-186.527-184.005h-15.342v-53.354h15.342zm15-53.354h15.342v53.354h-15.342zm45.685 7.576v38.202c0 4.177-3.398 7.576-7.576 7.576h-7.767v-53.354h7.767c4.177 0 7.576 3.398 7.576 7.576zm-106.37 0c0-4.177 3.398-7.576 7.576-7.576h7.767v53.354h-7.767c-4.178 0-7.576-3.398-7.576-7.576zm-93.858 272.854v-22.856h294.086v22.856zm25.623-121.887c37.488-9.274 77.208-9.637 114.86-1.048 37.585 8.572 77.353 8.734 115.004.473l25.365-5.566c8.481 11.044 13.234 24.698 13.234 39.084v5.823h-227.442c-4.143 0-7.5 3.358-7.5 7.5s3.357 7.5 7.5 7.5h239.212c2.876 0 5.215 2.339 5.215 5.215v19.835c0 2.875-2.339 5.215-5.215 5.215h-309.752c-2.876 0-5.215-2.339-5.215-5.215v-19.835c0-2.875 2.339-5.215 5.215-5.215h38.578c4.143 0 7.5-3.358 7.5-7.5s-3.357-7.5-7.5-7.5h-34.682v-5.823c0-9.964 2.285-19.575 6.504-28.214zm241.881 323.1h-240.922c-14.657 0-26.582-11.925-26.582-26.582v-31.245h294.086v31.245c0 14.657-11.925 26.582-26.582 26.582zm43.566-97.877v19.835c0 2.875-2.339 5.215-5.215 5.215h-309.751c-2.876 0-5.215-2.339-5.215-5.215v-19.835c0-2.875 2.339-5.215 5.215-5.215h228.047c4.143 0 7.5-3.358 7.5-7.5s-3.357-7.5-7.5-7.5h-224.15v-22.856h294.086v22.856h-37.974c-4.143 0-7.5 3.358-7.5 7.5s3.357 7.5 7.5 7.5h49.743c2.875 0 5.214 2.34 5.214 5.215zm0-83.121v19.835c0 2.875-2.339 5.215-5.215 5.215h-309.751c-2.876 0-5.215-2.339-5.215-5.215v-19.835c0-2.875 2.339-5.215 5.215-5.215h309.752c2.875 0 5.214 2.34 5.214 5.215z"/></svg>